<svg xmlns="http://www.w3.org/2000/svg" width="1600" height="900" viewBox="0 0 1600 900">
  <defs>
    <linearGradient id="bg" x1="0" y1="0" x2="1" y2="1">
      <stop offset="0%" stop-color="#f8f6f0"/>
      <stop offset="100%" stop-color="#f1ede5"/>
    </linearGradient>
    <linearGradient id="card" x1="0" y1="0" x2="1" y2="1">
      <stop offset="0%" stop-color="#fffefb"/>
      <stop offset="100%" stop-color="#faf7f0"/>
    </linearGradient>
    <pattern id="grid" width="34" height="34" patternUnits="userSpaceOnUse">
      <path d="M 34 0 H 0 V 34" fill="none" stroke="#d8d3c7" stroke-opacity="0.45" stroke-width="1"/>
    </pattern>
    <filter id="shadow" x="-20%" y="-20%" width="140%" height="140%">
      <feDropShadow dx="0" dy="10" stdDeviation="18" flood-color="#b8b0a2" flood-opacity="0.18"/>
    </filter>
  </defs>

  <rect width="1600" height="900" fill="url(#bg)"/>
  <g transform="translate(72,54)">
    <rect width="1456" height="792" rx="40" fill="url(#card)" stroke="#ddd7ca" filter="url(#shadow)"/>
    <text x="42" y="68" font-size="22" font-family="Helvetica, Arial, sans-serif" fill="#74807c">open question</text>
    <text x="42" y="126" font-size="54" font-weight="700" font-family="Helvetica, Arial, sans-serif" fill="#121826">What mechanism makes two-target or many-target systems bimodal?</text>
    <text x="42" y="170" font-size="27" font-family="Helvetica, Arial, sans-serif" fill="#556070">Once there is more than one target, the distribution may encode both route competition and target competition.</text>

    <g transform="translate(42,224)">
      <g>
        <rect width="672" height="492" rx="34" fill="#fff" stroke="#e4e0d6"/>
        <text x="34" y="52" font-size="32" font-weight="700" font-family="Helvetica, Arial, sans-serif" fill="#121826">Two targets</text>
        <text x="34" y="84" font-size="20" font-family="Helvetica, Arial, sans-serif" fill="#556070">Even one extra target adds new physical choices to the late-time branch.</text>

        <g transform="translate(34,118)">
          <rect width="360" height="220" rx="24" fill="#fbfaf6" stroke="#ddd8cc"/>
          <rect width="360" height="220" rx="24" fill="url(#grid)" opacity="0.72"/>
          <circle cx="52" cy="136" r="13" fill="#dc2626"/>
          <circle cx="250" cy="106" r="13" fill="#2563eb"/>
          <circle cx="308" cy="166" r="13" fill="#f97316"/>
          <path d="M 52 136 C 110 128, 164 120, 250 106" fill="none" stroke="#2563eb" stroke-width="8" stroke-linecap="round"/>
          <path d="M 52 136 C 122 146, 184 154, 308 166" fill="none" stroke="#f97316" stroke-width="8" stroke-linecap="round"/>
          <path d="M 52 136 C 110 92, 182 66, 318 64" fill="none" stroke="#7c3aed" stroke-width="7" stroke-linecap="round" stroke-dasharray="11 9"/>
          <text x="214" y="86" font-size="17" font-family="Helvetica, Arial, sans-serif" fill="#2563eb">near target</text>
          <text x="278" y="196" font-size="17" font-family="Helvetica, Arial, sans-serif" fill="#f97316">far target</text>
          <text x="190" y="52" font-size="17" font-family="Helvetica, Arial, sans-serif" fill="#7c3aed">late route</text>
        </g>

        <g transform="translate(430,128)">
          <circle cx="0" cy="8" r="5" fill="#2563eb"/>
          <text x="16" y="14" font-size="18" font-weight="600" font-family="Helvetica, Arial, sans-serif" fill="#374151">near-target winner</text>
          <circle cx="0" cy="58" r="5" fill="#f97316"/>
          <text x="16" y="64" font-size="18" font-weight="600" font-family="Helvetica, Arial, sans-serif" fill="#374151">far-target winner</text>
          <circle cx="0" cy="108" r="5" fill="#7c3aed"/>
          <text x="16" y="114" font-size="18" font-weight="600" font-family="Helvetica, Arial, sans-serif" fill="#374151">shared corridor, then split</text>
          <circle cx="0" cy="158" r="5" fill="#0f766e"/>
          <text x="16" y="164" font-size="18" font-weight="600" font-family="Helvetica, Arial, sans-serif" fill="#374151">one time window may favor one target</text>
        </g>

        <g transform="translate(34,382)">
          <rect width="602" height="68" rx="18" fill="#f7f4ee" stroke="#e3ddd4"/>
          <text x="20" y="29" font-size="19" font-family="Helvetica, Arial, sans-serif" fill="#475467">A peak may correspond to a preferred route-target pair,</text>
          <text x="20" y="53" font-size="19" font-family="Helvetica, Arial, sans-serif" fill="#475467">not only to a fast route.</text>
        </g>
      </g>

      <g transform="translate(724,0)">
        <rect width="648" height="492" rx="34" fill="#fff" stroke="#e4e0d6"/>
        <text x="34" y="52" font-size="32" font-weight="700" font-family="Helvetica, Arial, sans-serif" fill="#121826">Many targets</text>
        <text x="34" y="84" font-size="20" font-family="Helvetica, Arial, sans-serif" fill="#556070">With many targets, the distribution may split by target class as well as by transport time.</text>

        <g transform="translate(34,118)">
          <rect width="304" height="220" rx="24" fill="#fbfaf6" stroke="#ddd8cc"/>
          <rect width="304" height="220" rx="24" fill="url(#grid)" opacity="0.72"/>
          <circle cx="52" cy="136" r="13" fill="#dc2626"/>
          <circle cx="166" cy="94" r="11" fill="#2563eb"/>
          <circle cx="224" cy="126" r="11" fill="#f97316"/>
          <circle cx="260" cy="68" r="11" fill="#7c3aed"/>
          <circle cx="274" cy="170" r="11" fill="#0f766e"/>
          <path d="M 52 136 C 98 124, 126 116, 166 94" fill="none" stroke="#2563eb" stroke-width="7" stroke-linecap="round"/>
          <path d="M 52 136 C 102 140, 146 138, 224 126" fill="none" stroke="#f97316" stroke-width="7" stroke-linecap="round"/>
          <path d="M 52 136 C 108 96, 174 74, 260 68" fill="none" stroke="#7c3aed" stroke-width="6.5" stroke-linecap="round"/>
          <path d="M 52 136 C 106 170, 184 180, 274 170" fill="none" stroke="#0f766e" stroke-width="6.5" stroke-linecap="round" stroke-dasharray="11 9"/>
        </g>

        <g transform="translate(372,128)">
          <circle cx="0" cy="8" r="5" fill="#0f766e"/>
          <text x="16" y="14" font-size="18" font-weight="600" font-family="Helvetica, Arial, sans-serif" fill="#374151">screening by nearby clusters</text>
          <circle cx="0" cy="58" r="5" fill="#f97316"/>
          <text x="16" y="64" font-size="18" font-weight="600" font-family="Helvetica, Arial, sans-serif" fill="#374151">rare long-range winners</text>
          <circle cx="0" cy="108" r="5" fill="#7c3aed"/>
          <text x="16" y="114" font-size="18" font-weight="600" font-family="Helvetica, Arial, sans-serif" fill="#374151">different target classes, different peaks</text>
          <circle cx="0" cy="158" r="5" fill="#2563eb"/>
          <text x="16" y="164" font-size="18" font-weight="600" font-family="Helvetica, Arial, sans-serif" fill="#374151">target density joins route geometry</text>
        </g>

        <g transform="translate(34,382)">
          <rect width="584" height="68" rx="18" fill="#f7f4ee" stroke="#e3ddd4"/>
          <text x="20" y="29" font-size="19" font-family="Helvetica, Arial, sans-serif" fill="#475467">Open question:</text>
          <text x="132" y="29" font-size="19" font-family="Helvetica, Arial, sans-serif" fill="#475467">which peaks come from route delay, which come from target selection, and when do they mix?</text>
        </g>
      </g>
    </g>
  </g>
</svg>
