<svg xmlns="http://www.w3.org/2000/svg" width="1600" height="900" viewBox="0 0 1600 900" fill="none"><rect width="1600" height="900" fill="#f7f3ea"/><text x="96" y="110" font-family="Inter, Arial, sans-serif" font-size="28" font-weight="500" fill="#52606d">One-target corridor mechanism</text><text x="96" y="172" font-family="Inter, Arial, sans-serif" font-size="44" font-weight="700" fill="#18212a"><tspan x="96" dy="0">Is peak2 mainly outside time,</tspan><tspan x="96" dy="47">or mainly the membrane crossing?</tspan></text><text x="98" y="286" font-family="Inter, Arial, sans-serif" font-size="20" font-weight="400" fill="#52606d">The geometry is upper/lower symmetric, so the mechanism test is between outside-budget evidence and membrane-linked evidence.</text><rect x="84" y="322" width="430" height="520" rx="28" fill="#fffdf8" stroke="#dccfb7" stroke-width="2"/><rect x="536" y="322" width="954" height="246" rx="28" fill="#fffdf8" stroke="#dccfb7" stroke-width="2"/><rect x="536" y="586" width="954" height="246" rx="28" fill="#fffdf8" stroke="#dccfb7" stroke-width="2"/><text x="118" y="378" font-family="Inter, Arial, sans-serif" font-size="28" font-weight="700" fill="#18212a">symmetric corridor geometry</text><rect x="100" y="404" width="390" height="398" rx="22" fill="#f8f4ea" stroke="#dccfb7" stroke-width="2"/><line x1="112" y1="428" x2="112" y2="768" stroke="#d7d1c2" stroke-width="1"/><line x1="136" y1="428" x2="136" y2="768" stroke="#d7d1c2" stroke-width="1"/><line x1="160" y1="428" x2="160" y2="768" stroke="#d7d1c2" stroke-width="1"/><line x1="184" y1="428" x2="184" y2="768" stroke="#d7d1c2" stroke-width="1"/><line x1="208" y1="428" x2="208" y2="768" stroke="#d7d1c2" stroke-width="1"/><line x1="232" y1="428" x2="232" y2="768" stroke="#d7d1c2" stroke-width="1"/><line x1="256" y1="428" x2="256" y2="768" stroke="#d7d1c2" stroke-width="1"/><line x1="280" y1="428" x2="280" y2="768" stroke="#d7d1c2" stroke-width="1"/><line x1="304" y1="428" x2="304" y2="768" stroke="#d7d1c2" stroke-width="1"/><line x1="328" y1="428" x2="328" y2="768" stroke="#d7d1c2" stroke-width="1"/><line x1="352" y1="428" x2="352" y2="768" stroke="#d7d1c2" stroke-width="1"/><line x1="376" y1="428" x2="376" y2="768" stroke="#d7d1c2" stroke-width="1"/><line x1="400" y1="428" x2="400" y2="768" stroke="#d7d1c2" stroke-width="1"/><line x1="424" y1="428" x2="424" y2="768" stroke="#d7d1c2" stroke-width="1"/><line x1="448" y1="428" x2="448" y2="768" stroke="#d7d1c2" stroke-width="1"/><line x1="472" y1="428" x2="472" y2="768" stroke="#d7d1c2" stroke-width="1"/><line x1="112" y1="428" x2="488" y2="428" stroke="#d7d1c2" stroke-width="1"/><line x1="112" y1="450" x2="488" y2="450" stroke="#d7d1c2" stroke-width="1"/><line x1="112" y1="472" x2="488" y2="472" stroke="#d7d1c2" stroke-width="1"/><line x1="112" y1="494" x2="488" y2="494" stroke="#d7d1c2" stroke-width="1"/><line x1="112" y1="516" x2="488" y2="516" stroke="#d7d1c2" stroke-width="1"/><line x1="112" y1="538" x2="488" y2="538" stroke="#d7d1c2" stroke-width="1"/><line x1="112" y1="560" x2="488" y2="560" stroke="#d7d1c2" stroke-width="1"/><line x1="112" y1="582" x2="488" y2="582" stroke="#d7d1c2" stroke-width="1"/><line x1="112" y1="604" x2="488" y2="604" stroke="#d7d1c2" stroke-width="1"/><line x1="112" y1="626" x2="488" y2="626" stroke="#d7d1c2" stroke-width="1"/><line x1="112" y1="648" x2="488" y2="648" stroke="#d7d1c2" stroke-width="1"/><line x1="112" y1="670" x2="488" y2="670" stroke="#d7d1c2" stroke-width="1"/><line x1="112" y1="692" x2="488" y2="692" stroke="#d7d1c2" stroke-width="1"/><line x1="112" y1="714" x2="488" y2="714" stroke="#d7d1c2" stroke-width="1"/><line x1="112" y1="736" x2="488" y2="736" stroke="#d7d1c2" stroke-width="1"/><line x1="112" y1="758" x2="488" y2="758" stroke="#d7d1c2" stroke-width="1"/><rect x="112" y="522" width="376" height="120" fill="#d9edf2" opacity="0.86"/><line x1="112" y1="522" x2="488" y2="522" stroke="#5d6866" stroke-width="5" stroke-dasharray="18 12"/><line x1="112" y1="642" x2="488" y2="642" stroke="#5d6866" stroke-width="5" stroke-dasharray="18 12"/><rect x="150" y="574" width="18" height="18" fill="#d2443d"/><text x="132" y="616" font-family="Inter, Arial, sans-serif" font-size="22" font-weight="600" fill="#d2443d">start</text><polygon points="448,566 472,590 448,614 424,590" fill="#3269d1"/><text x="406" y="552" font-family="Inter, Arial, sans-serif" font-size="22" font-weight="600" fill="#3269d1">target</text><text x="220" y="502" font-family="Inter, Arial, sans-serif" font-size="18" font-weight="500" fill="#52606d">upper outside</text><text x="232" y="694" font-family="Inter, Arial, sans-serif" font-size="18" font-weight="500" fill="#52606d">lower outside</text><text x="236" y="596" font-family="Inter, Arial, sans-serif" font-size="24" font-weight="600" fill="#18212a">corridor</text><text x="270" y="516" font-family="Inter, Arial, sans-serif" font-size="17" font-weight="500" fill="#52606d">upper membrane</text><text x="272" y="664" font-family="Inter, Arial, sans-serif" font-size="17" font-weight="500" fill="#52606d">lower membrane</text><path d="M 170 584 C 212 548 240 512 268 476" stroke="#d8891f" stroke-width="4" fill="none" stroke-linecap="round"/><path d="M 170 584 C 212 620 240 652 270 688" stroke="#d8891f" stroke-width="4" fill="none" stroke-linecap="round"/><path d="M 170 584 L 430 590" stroke="#1f7a73" stroke-width="5" fill="none" stroke-linecap="round"/><text x="570" y="378" font-family="Inter, Arial, sans-serif" font-size="26" font-weight="700" fill="#18212a">outside-budget evidence</text><text x="570" y="642" font-family="Inter, Arial, sans-serif" font-size="26" font-weight="700" fill="#18212a">membrane-linked evidence</text><line x1="600" y1="512" x2="1454" y2="512" stroke="#b9c0bf" stroke-width="2"/><text x="574" y="410" font-family="Inter, Arial, sans-serif" font-size="16" font-weight="500" fill="#52606d">share</text><line x1="600" y1="512.0" x2="1452" y2="512.0" stroke="#e5dece" stroke-width="1"/><text x="574" y="518" font-family="Inter, Arial, sans-serif" font-size="15" font-weight="400" fill="#52606d">0.0</text><line x1="600" y1="471.0" x2="1452" y2="471.0" stroke="#e5dece" stroke-width="1"/><text x="574" y="477" font-family="Inter, Arial, sans-serif" font-size="15" font-weight="400" fill="#52606d">0.3</text><line x1="600" y1="430.0" x2="1452" y2="430.0" stroke="#e5dece" stroke-width="1"/><text x="574" y="436" font-family="Inter, Arial, sans-serif" font-size="15" font-weight="400" fill="#52606d">0.7</text><rect x="1220" y="400" width="16" height="16" rx="4" fill="#444444"/><text x="1244" y="414" font-family="Inter, Arial, sans-serif" font-size="15" font-weight="500" fill="#52606d">κ=0</text><rect x="1220" y="422" width="16" height="16" rx="4" fill="#d8891f"/><text x="1244" y="436" font-family="Inter, Arial, sans-serif" font-size="15" font-weight="500" fill="#52606d">κ=0.004</text><rect x="1220" y="444" width="16" height="16" rx="4" fill="#3269d1"/><text x="1244" y="458" font-family="Inter, Arial, sans-serif" font-size="15" font-weight="500" fill="#52606d">κ=0.0152</text><text x="738" y="538" font-family="Inter, Arial, sans-serif" font-size="16" font-weight="500" fill="#52606d">peak1</text><rect x="620.0" y="500.0" width="44.0" height="12.0" rx="8" fill="#444444" opacity="0.9"/><rect x="672.0" y="499.8" width="44.0" height="12.2" rx="8" fill="#d8891f" opacity="0.9"/><rect x="724.0" y="498.8" width="44.0" height="13.2" rx="8" fill="#3269d1" opacity="0.9"/><text x="1022" y="538" font-family="Inter, Arial, sans-serif" font-size="16" font-weight="500" fill="#52606d">valley</text><rect x="904.0" y="451.4" width="44.0" height="60.6" rx="8" fill="#444444" opacity="0.9"/><rect x="956.0" y="452.3" width="44.0" height="59.7" rx="8" fill="#d8891f" opacity="0.9"/><rect x="1008.0" y="448.8" width="44.0" height="63.2" rx="8" fill="#3269d1" opacity="0.9"/><text x="1306" y="538" font-family="Inter, Arial, sans-serif" font-size="16" font-weight="500" fill="#52606d">peak2</text><rect x="1188.0" y="441.9" width="44.0" height="70.1" rx="8" fill="#444444" opacity="0.9"/><rect x="1240.0" y="441.1" width="44.0" height="70.9" rx="8" fill="#d8891f" opacity="0.9"/><rect x="1292.0" y="442.8" width="44.0" height="69.2" rx="8" fill="#3269d1" opacity="0.9"/><line x1="600" y1="776" x2="1454" y2="776" stroke="#b9c0bf" stroke-width="2"/><text x="574" y="674" font-family="Inter, Arial, sans-serif" font-size="16" font-weight="500" fill="#52606d">prob.</text><line x1="600" y1="776.0" x2="1452" y2="776.0" stroke="#e5dece" stroke-width="1"/><text x="574" y="782" font-family="Inter, Arial, sans-serif" font-size="15" font-weight="400" fill="#52606d">0.0</text><line x1="600" y1="735.0" x2="1452" y2="735.0" stroke="#e5dece" stroke-width="1"/><text x="574" y="741" font-family="Inter, Arial, sans-serif" font-size="15" font-weight="400" fill="#52606d">0.3</text><line x1="600" y1="694.0" x2="1452" y2="694.0" stroke="#e5dece" stroke-width="1"/><text x="574" y="700" font-family="Inter, Arial, sans-serif" font-size="15" font-weight="400" fill="#52606d">0.6</text><rect x="1220" y="664" width="16" height="16" rx="4" fill="#444444"/><text x="1244" y="678" font-family="Inter, Arial, sans-serif" font-size="15" font-weight="500" fill="#52606d">κ=0</text><rect x="1220" y="686" width="16" height="16" rx="4" fill="#d8891f"/><text x="1244" y="700" font-family="Inter, Arial, sans-serif" font-size="15" font-weight="500" fill="#52606d">κ=0.004</text><rect x="1220" y="708" width="16" height="16" rx="4" fill="#3269d1"/><text x="1244" y="722" font-family="Inter, Arial, sans-serif" font-size="15" font-weight="500" fill="#52606d">κ=0.0152</text><text x="738" y="802" font-family="Inter, Arial, sans-serif" font-size="16" font-weight="500" fill="#52606d">peak1</text><rect x="620.0" y="776.0" width="44.0" height="6.0" rx="8" fill="#444444" opacity="0.9"/><rect x="672.0" y="774.9" width="44.0" height="6.0" rx="8" fill="#d8891f" opacity="0.9"/><rect x="724.0" y="768.7" width="44.0" height="7.3" rx="8" fill="#3269d1" opacity="0.9"/><text x="1022" y="802" font-family="Inter, Arial, sans-serif" font-size="16" font-weight="500" fill="#52606d">valley</text><rect x="904.0" y="776.0" width="44.0" height="6.0" rx="8" fill="#444444" opacity="0.9"/><rect x="956.0" y="751.0" width="44.0" height="25.0" rx="8" fill="#d8891f" opacity="0.9"/><rect x="1008.0" y="708.6" width="44.0" height="67.4" rx="8" fill="#3269d1" opacity="0.9"/><text x="1306" y="802" font-family="Inter, Arial, sans-serif" font-size="16" font-weight="500" fill="#52606d">peak2</text><rect x="1188.0" y="776.0" width="44.0" height="6.0" rx="8" fill="#444444" opacity="0.9"/><rect x="1240.0" y="749.1" width="44.0" height="26.9" rx="8" fill="#d8891f" opacity="0.9"/><rect x="1292.0" y="703.3" width="44.0" height="72.7" rx="8" fill="#3269d1" opacity="0.9"/><rect x="108" y="794" width="1380" height="70" rx="18" fill="#f5efe4" stroke="#dccfb7" stroke-width="2"/><text x="138" y="836" font-family="Inter, Arial, sans-serif" font-size="20" font-weight="600" fill="#52606d">The late branch is better separated from the valley by outside-time budget than by the membrane event alone.</text></svg>