<svg xmlns="http://www.w3.org/2000/svg" width="1600" height="900" viewBox="0 0 1600 900">
  <defs>
    <linearGradient id="bg" x1="0" y1="0" x2="1" y2="1">
      <stop offset="0%" stop-color="#f7f4ee"/>
      <stop offset="100%" stop-color="#f1ede5"/>
    </linearGradient>
    <linearGradient id="card" x1="0" y1="0" x2="1" y2="1">
      <stop offset="0%" stop-color="#fffefb"/>
      <stop offset="100%" stop-color="#faf7f0"/>
    </linearGradient>
    <pattern id="grid" width="28" height="28" patternUnits="userSpaceOnUse">
      <path d="M 28 0 H 0 V 28" fill="none" stroke="#d7ddd8" stroke-width="1" stroke-opacity="0.55"/>
    </pattern>
    <filter id="shadow" x="-20%" y="-20%" width="140%" height="140%">
      <feDropShadow dx="0" dy="10" stdDeviation="16" flood-color="#aea89a" flood-opacity="0.14"/>
    </filter>
  </defs>
  <rect width="1600" height="900" fill="url(#bg)"/>
  <g transform="translate(72,54)">
    <rect width="1456" height="792" rx="40" fill="url(#card)" stroke="#ddd7ca" filter="url(#shadow)"/>
    <text x="44" y="68" font-size="22" font-family="Helvetica, Arial, sans-serif" fill="#75807a">permeability scan</text>
    <text x="44" y="120" font-size="50" font-weight="700" font-family="Helvetica, Arial, sans-serif" fill="#121826">Membrane traffic grows, but it does not take over</text>
    <text x="44" y="164" font-size="24" font-family="Helvetica, Arial, sans-serif" fill="#556070">
      <tspan x="44" dy="0">In the 1-target corridor, higher permeability makes membrane-related trajectories more common,</tspan>
      <tspan x="44" dy="32">but the share saturates near 50% instead of taking over the whole late branch.</tspan>
    </text>

    <g transform="translate(44,248)">
      <g>
        <rect width="934" height="478" rx="32" fill="#fff" stroke="#e3ddd2"/>
        <text x="34" y="48" font-size="28" font-weight="700" font-family="Helvetica, Arial, sans-serif" fill="#17202d">Realistic corridor geometry</text>
        <text x="34" y="78" font-size="17" font-family="Helvetica, Arial, sans-serif" fill="#5d6672">
          <tspan x="34" dy="0">The semipermeable boundaries sit on the upper and lower sides of the corridor,</tspan>
          <tspan x="34" dy="24">so trajectories can leak out and return later.</tspan>
        </text>

        <g transform="translate(24,118)">
          <g>
            <text x="128" y="-10" font-size="20" font-weight="700" font-family="Helvetica, Arial, sans-serif" fill="#374151">low permeability</text>
            <rect x="0" y="0" width="282" height="290" rx="24" fill="#fbfaf6" stroke="#ddd8cc"/>
            <rect x="0" y="0" width="282" height="290" rx="24" fill="url(#grid)" opacity="0.72"/>
            <rect x="34" y="104" width="214" height="84" rx="18" fill="#d9eee8" stroke="#b9d9ce"/>
            <line x1="34" y1="104" x2="248" y2="104" stroke="#6b7280" stroke-width="8" stroke-dasharray="10 8"/>
            <line x1="34" y1="188" x2="248" y2="188" stroke="#6b7280" stroke-width="8" stroke-dasharray="10 8"/>
            <circle cx="54" cy="146" r="13" fill="#c0392b"/>
            <circle cx="226" cy="146" r="13" fill="#2563eb"/>
            <path d="M 54 146 C 100 146, 144 146, 226 146" fill="none" stroke="#0f8c82" stroke-width="8" stroke-linecap="round"/>
            <path d="M 54 146 C 86 108, 116 84, 152 78 C 184 74, 206 102, 226 146" fill="none" stroke="#d58927" stroke-width="7" stroke-linecap="round" opacity="0.38"/>
            <text x="28" y="220" font-size="16" font-family="Helvetica, Arial, sans-serif" fill="#4b5563">mostly stays in the corridor</text>
            <rect x="24" y="244" width="232" height="24" rx="12" fill="#eef2ef" stroke="#d8ddd7"/>
            <rect x="24" y="244" width="52" height="24" rx="12" fill="#d58927"/>
            <text x="96" y="261" font-size="16" font-family="Helvetica, Arial, sans-serif" fill="#556070">~18%</text>
          </g>

          <g transform="translate(306,0)">
            <text x="120" y="-10" font-size="20" font-weight="700" font-family="Helvetica, Arial, sans-serif" fill="#374151">mid permeability</text>
            <rect x="0" y="0" width="282" height="290" rx="24" fill="#fbfaf6" stroke="#ddd8cc"/>
            <rect x="0" y="0" width="282" height="290" rx="24" fill="url(#grid)" opacity="0.72"/>
            <rect x="34" y="104" width="214" height="84" rx="18" fill="#d9eee8" stroke="#b9d9ce"/>
            <line x1="34" y1="104" x2="248" y2="104" stroke="#6b7280" stroke-width="8" stroke-dasharray="7 7"/>
            <line x1="34" y1="188" x2="248" y2="188" stroke="#6b7280" stroke-width="8" stroke-dasharray="7 7"/>
            <circle cx="54" cy="146" r="13" fill="#c0392b"/>
            <circle cx="226" cy="146" r="13" fill="#2563eb"/>
            <path d="M 54 146 C 100 146, 144 146, 226 146" fill="none" stroke="#0f8c82" stroke-width="8" stroke-linecap="round"/>
            <path d="M 54 146 C 86 108, 116 82, 152 76 C 188 72, 210 98, 226 146" fill="none" stroke="#d58927" stroke-width="7" stroke-linecap="round" opacity="0.68"/>
            <text x="28" y="220" font-size="16" font-family="Helvetica, Arial, sans-serif" fill="#4b5563">membrane-related branch becomes visible</text>
            <rect x="24" y="244" width="232" height="24" rx="12" fill="#eef2ef" stroke="#d8ddd7"/>
            <rect x="24" y="244" width="102" height="24" rx="12" fill="#d58927"/>
            <text x="146" y="261" font-size="16" font-family="Helvetica, Arial, sans-serif" fill="#556070">~36%</text>
          </g>

          <g transform="translate(612,0)">
            <text x="116" y="-10" font-size="20" font-weight="700" font-family="Helvetica, Arial, sans-serif" fill="#374151">high permeability</text>
            <rect x="0" y="0" width="282" height="290" rx="24" fill="#fbfaf6" stroke="#ddd8cc"/>
            <rect x="0" y="0" width="282" height="290" rx="24" fill="url(#grid)" opacity="0.72"/>
            <rect x="34" y="104" width="214" height="84" rx="18" fill="#d9eee8" stroke="#b9d9ce"/>
            <line x1="34" y1="104" x2="248" y2="104" stroke="#6b7280" stroke-width="8" stroke-dasharray="4 6"/>
            <line x1="34" y1="188" x2="248" y2="188" stroke="#6b7280" stroke-width="8" stroke-dasharray="4 6"/>
            <circle cx="54" cy="146" r="13" fill="#c0392b"/>
            <circle cx="226" cy="146" r="13" fill="#2563eb"/>
            <path d="M 54 146 C 100 146, 144 146, 226 146" fill="none" stroke="#0f8c82" stroke-width="8" stroke-linecap="round"/>
            <path d="M 54 146 C 86 108, 116 80, 152 74 C 188 70, 210 96, 226 146" fill="none" stroke="#d58927" stroke-width="7" stroke-linecap="round" opacity="0.84"/>
            <text x="28" y="220" font-size="16" font-family="Helvetica, Arial, sans-serif" fill="#4b5563">growth slows near a ceiling</text>
            <rect x="24" y="244" width="232" height="24" rx="12" fill="#eef2ef" stroke="#d8ddd7"/>
            <rect x="24" y="244" width="140" height="24" rx="12" fill="#d58927"/>
            <text x="184" y="261" font-size="16" font-family="Helvetica, Arial, sans-serif" fill="#556070">~49%</text>
          </g>
        </g>
      </g>

      <g transform="translate(972,0)">
        <rect width="396" height="478" rx="32" fill="#fff" stroke="#e3ddd2"/>
        <text x="30" y="48" font-size="28" font-weight="700" font-family="Helvetica, Arial, sans-serif" fill="#17202d">What the scan says</text>
        <text x="30" y="78" font-size="17" font-family="Helvetica, Arial, sans-serif" fill="#5d6672">
          <tspan x="30" dy="0">If membrane passage alone produced the late peak,</tspan>
          <tspan x="30" dy="24">the share would keep rising toward 100%. It does not.</tspan>
        </text>
        <g transform="translate(28,116)">
          <rect width="340" height="236" rx="24" fill="#fdfbf6" stroke="#e5e1d8"/>
          <line x1="42" y1="192" x2="304" y2="192" stroke="#d0d6d0" stroke-width="3"/>
          <line x1="42" y1="192" x2="42" y2="42" stroke="#d0d6d0" stroke-width="3"/>
          <line x1="42" y1="94" x2="304" y2="94" stroke="#0f8c82" stroke-width="4" stroke-dasharray="10 8" opacity="0.65"/>
          <text x="156" y="80" font-size="16" font-family="Helvetica, Arial, sans-serif" fill="#0f8c82">plateau near 50%</text>
          <path d="M 42 170 C 80 144, 124 116, 174 102 C 220 92, 264 92, 304 94" fill="none" stroke="#d58927" stroke-width="8" stroke-linecap="round"/>
          <circle cx="88" cy="144" r="7" fill="#d58927"/>
          <circle cx="172" cy="102" r="7" fill="#d58927"/>
          <circle cx="292" cy="94" r="7" fill="#d58927"/>
          <text x="66" y="214" font-size="16" font-family="Helvetica, Arial, sans-serif" fill="#6b7280">low</text>
          <text x="160" y="214" font-size="16" font-family="Helvetica, Arial, sans-serif" fill="#6b7280">mid</text>
          <text x="268" y="214" font-size="16" font-family="Helvetica, Arial, sans-serif" fill="#6b7280">high</text>
        </g>
        <g transform="translate(28,378)">
          <rect width="340" height="82" rx="20" fill="#f7f4ee" stroke="#e3ddd4"/>
          <text x="18" y="30" font-size="18" font-family="Helvetica, Arial, sans-serif" fill="#4f5b67">Conclusion:</text>
          <text x="18" y="54" font-size="17" font-family="Helvetica, Arial, sans-serif" fill="#4f5b67">
            <tspan x="18" dy="0">membrane traffic contributes,</tspan>
            <tspan x="18" dy="22">but it does not by itself define peak 2.</tspan>
          </text>
        </g>
      </g>
    </g>
  </g>
</svg>
