<svg xmlns="http://www.w3.org/2000/svg" width="1600" height="900" viewBox="0 0 1600 900">
  <defs>
    <linearGradient id="bg" x1="0" y1="0" x2="1" y2="1">
      <stop offset="0%" stop-color="#f8f6f0"/>
      <stop offset="100%" stop-color="#f2efe7"/>
    </linearGradient>
    <pattern id="grid" width="34" height="34" patternUnits="userSpaceOnUse">
      <path d="M 34 0 H 0 V 34" fill="none" stroke="#d8d3c7" stroke-opacity="0.45" stroke-width="1"/>
    </pattern>
    <filter id="shadow" x="-20%" y="-20%" width="140%" height="140%">
      <feDropShadow dx="0" dy="10" stdDeviation="18" flood-color="#b8b0a2" flood-opacity="0.18"/>
    </filter>
    <marker id="arrow" markerWidth="12" markerHeight="12" refX="9" refY="6" orient="auto" markerUnits="strokeWidth">
      <path d="M 0 0 L 12 6 L 0 12 z" fill="#a67c52"/>
    </marker>
  </defs>

  <rect width="1600" height="900" fill="url(#bg)"/>
  <g transform="translate(72,54)">
    <rect width="1456" height="792" rx="40" fill="#fffefb" stroke="#ddd7ca" filter="url(#shadow)"/>

    <text x="42" y="62" font-size="22" font-family="Helvetica, Arial, sans-serif" fill="#74807c">outlook</text>
    <text x="42" y="126" font-size="54" font-weight="700" font-family="Helvetica, Arial, sans-serif" fill="#121826">Two-target and multi-target mechanisms</text>
    <text x="42" y="170" font-size="27" font-family="Helvetica, Arial, sans-serif" fill="#556070">Once there is more than one target, bimodality can come from route choice, target choice, and target density.</text>

    <g transform="translate(42,222)">
      <g transform="translate(0,0)">
        <rect width="656" height="480" rx="34" fill="#ffffff" stroke="#e4e0d6"/>
        <text x="34" y="52" font-size="32" font-weight="700" font-family="Helvetica, Arial, sans-serif" fill="#121826">Two targets</text>
        <text x="34" y="86" font-size="20" font-family="Helvetica, Arial, sans-serif" fill="#556070">One extra target already creates several distinct physical stories.</text>

        <g transform="translate(34,118)">
          <rect width="362" height="218" rx="24" fill="#fbfaf6" stroke="#ddd8cc"/>
          <rect width="362" height="218" rx="24" fill="url(#grid)" opacity="0.72"/>
          <circle cx="54" cy="136" r="13" fill="#dc2626"/>
          <circle cx="252" cy="108" r="13" fill="#2563eb"/>
          <circle cx="306" cy="164" r="13" fill="#f97316"/>
          <path d="M 54 136 C 110 132, 164 124, 252 108" fill="none" stroke="#2563eb" stroke-width="8" stroke-linecap="round"/>
          <path d="M 54 136 C 118 144, 178 150, 306 164" fill="none" stroke="#f97316" stroke-width="8" stroke-linecap="round"/>
          <path d="M 54 136 C 112 98, 178 70, 314 66" fill="none" stroke="#7c3aed" stroke-width="7" stroke-linecap="round" stroke-dasharray="11 9"/>
          <text x="210" y="86" font-size="18" font-family="Helvetica, Arial, sans-serif" fill="#2563eb">near target</text>
          <text x="274" y="194" font-size="18" font-family="Helvetica, Arial, sans-serif" fill="#f97316">far target</text>
          <text x="196" y="52" font-size="18" font-family="Helvetica, Arial, sans-serif" fill="#7c3aed">late branch</text>
        </g>

        <g transform="translate(430,126)">
          <circle cx="0" cy="10" r="5" fill="#0f766e"/>
          <text x="16" y="16" font-size="18" font-weight="600" font-family="Helvetica, Arial, sans-serif" fill="#374151">near-vs-far competition</text>
          <circle cx="0" cy="62" r="5" fill="#f59e0b"/>
          <text x="16" y="68" font-size="18" font-weight="600" font-family="Helvetica, Arial, sans-serif" fill="#374151">shared corridor, then split</text>
          <circle cx="0" cy="114" r="5" fill="#7c3aed"/>
          <text x="16" y="120" font-size="18" font-weight="600" font-family="Helvetica, Arial, sans-serif" fill="#374151">one window may favor one target</text>
        </g>

        <g transform="translate(34,376)">
          <rect width="586" height="68" rx="18" fill="#f7f4ee" stroke="#e3ddd4"/>
          <text x="20" y="29" font-size="20" font-family="Helvetica, Arial, sans-serif" fill="#475467">A peak may correspond to a preferred route-target pair,</text>
          <text x="20" y="53" font-size="20" font-family="Helvetica, Arial, sans-serif" fill="#475467">not only to a fast route.</text>
        </g>
      </g>

      <path d="M 680 236 C 724 236, 744 236, 784 236" fill="none" stroke="#b88b59" stroke-width="5" marker-end="url(#arrow)"/>

      <g transform="translate(800,0)">
        <rect width="572" height="480" rx="34" fill="#ffffff" stroke="#e4e0d6"/>
        <text x="34" y="52" font-size="32" font-weight="700" font-family="Helvetica, Arial, sans-serif" fill="#121826">Many targets</text>
        <text x="34" y="86" font-size="20" font-family="Helvetica, Arial, sans-serif" fill="#556070">Target density can create new late-time winners and new peak structure.</text>

        <g transform="translate(34,118)">
          <rect width="300" height="218" rx="24" fill="#fbfaf6" stroke="#ddd8cc"/>
          <rect width="300" height="218" rx="24" fill="url(#grid)" opacity="0.72"/>
          <circle cx="50" cy="136" r="13" fill="#dc2626"/>
          <circle cx="176" cy="92" r="12" fill="#2563eb"/>
          <circle cx="226" cy="130" r="12" fill="#f97316"/>
          <circle cx="254" cy="66" r="12" fill="#7c3aed"/>
          <circle cx="274" cy="168" r="12" fill="#0f766e"/>
          <path d="M 50 136 C 96 126, 128 114, 176 92" fill="none" stroke="#2563eb" stroke-width="7" stroke-linecap="round"/>
          <path d="M 50 136 C 100 140, 150 136, 226 130" fill="none" stroke="#f97316" stroke-width="7" stroke-linecap="round"/>
          <path d="M 50 136 C 108 98, 168 68, 254 66" fill="none" stroke="#7c3aed" stroke-width="6.5" stroke-linecap="round"/>
          <path d="M 50 136 C 106 168, 182 176, 274 168" fill="none" stroke="#0f766e" stroke-width="6.5" stroke-linecap="round" stroke-dasharray="11 9"/>
        </g>

        <g transform="translate(366,126)">
          <circle cx="0" cy="10" r="5" fill="#0f766e"/>
          <text x="16" y="16" font-size="18" font-weight="600" font-family="Helvetica, Arial, sans-serif" fill="#374151">screening by nearby target clusters</text>
          <circle cx="0" cy="62" r="5" fill="#f59e0b"/>
          <text x="16" y="68" font-size="18" font-weight="600" font-family="Helvetica, Arial, sans-serif" fill="#374151">rare long-range winners at late times</text>
          <circle cx="0" cy="114" r="5" fill="#7c3aed"/>
          <text x="16" y="120" font-size="18" font-weight="600" font-family="Helvetica, Arial, sans-serif" fill="#374151">new peaks from different target classes</text>
          <circle cx="0" cy="166" r="5" fill="#2563eb"/>
          <text x="16" y="172" font-size="18" font-weight="600" font-family="Helvetica, Arial, sans-serif" fill="#374151">target density joins route geometry</text>
        </g>

        <g transform="translate(34,376)">
          <rect width="504" height="68" rx="18" fill="#f7f4ee" stroke="#e3ddd4"/>
          <text x="20" y="29" font-size="20" font-family="Helvetica, Arial, sans-serif" fill="#475467">Future question: how do route competition and target</text>
          <text x="20" y="53" font-size="20" font-family="Helvetica, Arial, sans-serif" fill="#475467">competition combine to create the observed peaks?</text>
        </g>
      </g>
    </g>
  </g>
</svg>
